<svg version="1.1" xmlns="http://www.w3.org/2000/svg" xmlns:xlink="http://www.w3.org/1999/xlink" width="96" height="78"><defs/><g><path fill="rgb(255,255,255)" stroke="none" paint-order="stroke fill markers" fill-rule="evenodd" d=" M 76.29437255859375 1.996140718460083 C 76.29437255859375 1.996140718460083 64.04999542236328 20.41532063484192 64.04999542236328 20.41532063484192 C 64.04999542236328 20.41532063484192 51.395347595214844 1.996140718460083 51.395347595214844 1.996140718460083 C 51.395347595214844 1.996140718460083 76.29437255859375 1.996140718460083 76.29437255859375 1.996140718460083 Z M 62.105873107910156 24.626469254493713 C 62.105873107910156 24.626469254493713 34.943092346191406 24.626469254493713 34.943092346191406 24.626469254493713 C 34.943092346191406 24.626469254493713 48.52265167236328 76.02643990516663 48.52265167236328 76.02643990516663 C 48.52265167236328 76.02643990516663 62.105873107910156 24.626469254493713 62.105873107910156 24.626469254493713 Z M 35.84992218017578 21.608238458633423 C 35.84992218017578 21.608238458633423 61.19721221923828 21.608238458633423 61.19721221923828 21.608238458633423 C 61.19721221923828 21.608238458633423 48.52265167236328 3.160144329071045 48.52265167236328 3.160144329071045 C 48.52265167236328 3.160144329071045 35.84992218017578 21.608238458633423 35.84992218017578 21.608238458633423 Z M 32.997596740722656 20.41532063484192 C 32.997596740722656 20.41532063484192 45.651100158691406 1.996140718460083 45.651100158691406 1.996140718460083 C 45.651100158691406 1.996140718460083 20.75402069091797 1.996140718460083 20.75402069091797 1.996140718460083 C 20.75402069091797 1.996140718460083 32.997596740722656 20.41532063484192 32.997596740722656 20.41532063484192 Z M 45.64503479003906 76.99630522727966 C 45.64503479003906 76.99630522727966 31.80901336669922 24.626469254493713 31.80901336669922 24.626469254493713 C 31.80901336669922 24.626469254493713 1.9999008178710938 24.626469254493713 1.9999008178710938 24.626469254493713 C 1.9999008178710938 24.626469254493713 45.64503479003906 76.99630522727966 45.64503479003906 76.99630522727966 Z M 2.0424728393554688 21.608238458633423 C 2.0424728393554688 21.608238458633423 30.156829833984375 21.608238458633423 30.156829833984375 21.608238458633423 C 30.156829833984375 21.608238458633423 17.909820556640625 3.1857540607452393 17.909820556640625 3.1857540607452393 C 17.909820556640625 3.1857540607452393 2.0424728393554688 21.608238458633423 2.0424728393554688 21.608238458633423 Z M 79.11648559570312 3.220864176750183 C 79.11648559570312 3.220864176750183 66.89236450195312 21.608238458633423 66.89236450195312 21.608238458633423 C 66.89236450195312 21.608238458633423 94.95728302001953 21.608238458633423 94.95728302001953 21.608238458633423 C 94.95728302001953 21.608238458633423 79.11648559570312 3.220864176750183 79.11648559570312 3.220864176750183 Z M 65.23857879638672 24.626469254493713 C 65.23857879638672 24.626469254493713 51.400726318359375 76.99093544483185 51.400726318359375 76.99093544483185 C 51.400726318359375 76.99093544483185 94.99996948242188 24.626469254493713 94.99996948242188 24.626469254493713 C 94.99996948242188 24.626469254493713 65.23857879638672 24.626469254493713 65.23857879638672 24.626469254493713 Z"/></g></svg>