<svg version="1.1" xmlns="http://www.w3.org/2000/svg" xmlns:xlink="http://www.w3.org/1999/xlink" width="62" height="99"><defs/><g><path fill="rgb(24,207,171)" stroke="none" paint-order="stroke fill markers" fill-rule="evenodd" d=" M 48.99995422363281 76.99733853340149 C 48.99995422363281 78.65453600883484 47.65813446044922 79.9957424402237 46 79.9957424402237 C 46 79.9957424402237 16 79.9957424402237 16 79.9957424402237 C 14.341751098632812 79.9957424402237 12.999931335449219 78.65453600883484 12.999931335449219 76.99733853340149 C 12.999931335449219 75.33848881721497 14.341751098632812 73.99645626544952 16 73.99645626544952 C 16 73.99645626544952 46 73.99645626544952 46 73.99645626544952 C 47.65813446044922 73.99645626544952 48.99995422363281 75.33848881721497 48.99995422363281 76.99733853340149 Z M 46 82.99662470817566 C 46 82.99662470817566 16 82.99662470817566 16 82.99662470817566 C 14.341751098632812 82.99662470817566 12.999931335449219 84.33741807937622 12.999931335449219 85.99668085575104 C 12.999931335449219 87.65594363212585 14.341751098632812 88.99591088294983 16 88.99591088294983 C 16 88.99591088294983 46 88.99591088294983 46 88.99591088294983 C 47.65813446044922 88.99591088294983 48.99995422363281 87.65594363212585 48.99995422363281 85.99668085575104 C 48.99995422363281 84.33741807937622 47.65813446044922 82.99662470817566 46 82.99662470817566 Z M 24.999977111816406 97.99607932567596 C 24.999977111816406 97.99607932567596 36.999908447265625 97.99607932567596 36.999908447265625 97.99607932567596 C 40.31640625 97.99607932567596 42.99993133544922 95.31284034252167 42.99993133544922 91.9963800907135 C 42.99993133544922 91.9963800907135 18.999954223632812 91.9963800907135 18.999954223632812 91.9963800907135 C 18.999954223632812 95.31284034252167 21.68359375 97.99607932567596 24.999977111816406 97.99607932567596 Z M 61 31.99608325958252 C 61 48.30824315547943 51.16792297363281 50.20666778087616 49.32221984863281 67.99593091011047 C 49.32221984863281 69.654780626297 47.98040008544922 70.99681317806244 46.322265625 70.99681317806244 C 46.322265625 70.99681317806244 15.677734375 70.99681317806244 15.677734375 70.99681317806244 C 14.019371032714844 70.99681317806244 12.677665710449219 69.654780626297 12.677665710449219 67.99593091011047 C 12.677665710449219 67.99593091011047 12.671829223632812 67.99593091011047 12.671829223632812 67.99593091011047 C 10.832077026367188 50.20666778087616 1 48.30824315547943 1 31.99608325958252 C 1 15.426586866378784 14.429641723632812 1.9959348440170288 31 1.9959348440170288 C 47.57024383544922 1.9959348440170288 61 15.426586866378784 61 31.99608325958252 Z M 43.14641571044922 22.99674093723297 C 8.271461486816406 31.2459659576416 25.146461486816406 52.99688935279846 25.146461486816406 52.99688935279846 C 25.146461486816406 40.99583864212036 33.958984375 38.18331182003021 34.14643859863281 38.55919659137726 C 27.958961486816406 44.559308886528015 25.146461486816406 64.99628782272339 25.146461486816406 64.99628782272339 C 25.146461486816406 64.99628782272339 31.146484375 64.99628782272339 31.146484375 64.99628782272339 C 31.146484375 64.99628782272339 31.146484375 58.99576246738434 31.146484375 52.99688935279846 C 48.20893859863281 53.93370985984802 43.14641571044922 25.057911276817322 43.14641571044922 22.99674093723297 Z"/></g></svg>