<svg version="1.1" xmlns="http://www.w3.org/2000/svg" xmlns:xlink="http://www.w3.org/1999/xlink" width="102" height="79"><defs/><g><path fill="rgb(255,255,255)" stroke="none" paint-order="stroke fill markers" fill-rule="evenodd" d=" M 1.9999465942382812 77.99630522727966 C 1.9999465942382812 77.99630522727966 40.796905517578125 77.99630522727966 40.796905517578125 77.99630522727966 C 40.796905517578125 77.99630522727966 40.796905517578125 20.974172353744507 40.796905517578125 20.974172353744507 C 40.796905517578125 20.974172353744507 1.9999465942382812 20.974172353744507 1.9999465942382812 20.974172353744507 C 1.9999465942382812 20.974172353744507 1.9999465942382812 77.99630522727966 1.9999465942382812 77.99630522727966 Z M 22.21685028076172 75.13792872428894 C 21.184249877929688 75.13792872428894 20.34814453125 74.31015610694885 20.34814453125 73.30270230770111 C 20.34814453125 72.29400932788849 21.184249877929688 71.4724326133728 22.21685028076172 71.4724326133728 C 23.2503662109375 71.4724326133728 24.087730407714844 72.29400932788849 24.087730407714844 73.30270230770111 C 24.090591430664062 74.31015610694885 23.2503662109375 75.13792872428894 22.21685028076172 75.13792872428894 Z M 7.61041259765625 26.469112038612366 C 7.61041259765625 26.469112038612366 35.19055938720703 26.469112038612366 35.19055938720703 26.469112038612366 C 35.19055938720703 26.469112038612366 35.188499450683594 68.54177057743073 35.188499450683594 68.54177057743073 C 35.188499450683594 68.54177057743073 7.61041259765625 68.54177057743073 7.61041259765625 68.54177057743073 C 7.61041259765625 68.54177057743073 7.61041259765625 26.469112038612366 7.61041259765625 26.469112038612366 Z M 21.188369750976562 7.361360788345337 C 21.188369750976562 7.361360788345337 83.36194610595703 7.361360788345337 83.36194610595703 7.361360788345337 C 83.36194610595703 7.361360788345337 83.36194610595703 32.08053469657898 83.36194610595703 32.08053469657898 C 83.36194610595703 32.08053469657898 88.84126281738281 32.08053469657898 88.84126281738281 32.08053469657898 C 88.84126281738281 32.08053469657898 88.84126281738281 1.9961220026016235 88.84126281738281 1.9961220026016235 C 88.84126281738281 1.9961220026016235 15.710197448730469 1.9961220026016235 15.710197448730469 1.9961220026016235 C 15.710197448730469 1.9961220026016235 15.710197448730469 18.53711724281311 15.710197448730469 18.53711724281311 C 15.710197448730469 18.53711724281311 21.188369750976562 18.53711724281311 21.188369750976562 18.53711724281311 C 21.188369750976562 18.53711724281311 21.188369750976562 7.361360788345337 21.188369750976562 7.361360788345337 Z M 43.29743957519531 43.8721638917923 C 43.29743957519531 43.8721638917923 72.1105728149414 43.8721638917923 72.1105728149414 43.8721638917923 C 72.1105728149414 43.8721638917923 72.1105728149414 49.2382287979126 72.1105728149414 49.2382287979126 C 72.1105728149414 49.2382287979126 43.29743957519531 49.2382287979126 43.29743957519531 49.2382287979126 C 43.29743957519531 49.2382287979126 43.29743957519531 43.8721638917923 43.29743957519531 43.8721638917923 Z M 74.94275665283203 34.162358045578 C 74.94275665283203 34.162358045578 74.94275665283203 77.10533440113068 74.94275665283203 77.10533440113068 C 74.94275665283203 77.10533440113068 100.99992370605469 77.10533440113068 100.99992370605469 77.10533440113068 C 100.99992370605469 77.10533440113068 100.99992370605469 34.162358045578 100.99992370605469 34.162358045578 C 100.99992370605469 34.162358045578 74.94275665283203 34.162358045578 74.94275665283203 34.162358045578 Z M 88.55012512207031 35.940582156181335 C 88.89813995361328 35.940582156181335 89.1789779663086 36.215267181396484 89.1789779663086 36.55728101730347 C 89.1789779663086 36.89475119113922 88.89813995361328 37.176045179367065 88.55012512207031 37.176045179367065 C 88.20222473144531 37.176045179367065 87.91944122314453 36.89475119113922 87.91944122314453 36.55728101730347 C 87.91944122314453 36.21320188045502 88.20222473144531 35.940582156181335 88.55012512207031 35.940582156181335 Z M 84.80241394042969 38.000513315200806 C 84.80241394042969 38.000513315200806 92.29783630371094 38.000513315200806 92.29783630371094 38.000513315200806 C 92.29783630371094 38.000513315200806 92.29783630371094 38.589537143707275 92.29783630371094 38.589537143707275 C 92.29783630371094 38.589537143707275 84.80241394042969 38.589537143707275 84.80241394042969 38.589537143707275 C 84.80241394042969 38.589537143707275 84.80241394042969 38.000513315200806 84.80241394042969 38.000513315200806 Z M 88.30384826660156 75.25152027606964 C 87.47598266601562 75.25152027606964 86.8004379272461 74.58897173404694 86.8004379272461 73.77606928348541 C 86.8004379272461 72.96688437461853 87.47174835205078 72.30474889278412 88.30384826660156 72.30474889278412 C 89.1320571899414 72.30474889278412 89.80748748779297 72.9623407125473 89.80748748779297 73.77606928348541 C 89.80748748779297 74.58897173404694 89.1320571899414 75.25152027606964 88.30384826660156 75.25152027606964 Z M 96.81893920898438 70.19401133060455 C 90.05170440673828 70.23201286792755 82.47880554199219 70.25597035884857 79.12385559082031 70.2287083864212 C 79.12385559082031 70.2287083864212 79.12385559082031 40.703166127204895 79.12385559082031 40.703166127204895 C 79.12385559082031 40.703166127204895 96.81893920898438 40.69903552532196 96.81893920898438 40.69903552532196 C 96.81893920898438 40.69903552532196 96.81893920898438 70.19401133060455 96.81893920898438 70.19401133060455 Z M 51.22727966308594 51.43364369869232 C 51.22727966308594 51.43364369869232 43.29743957519531 51.43364369869232 43.29743957519531 51.43364369869232 C 43.29743957519531 51.43364369869232 43.29743957519531 54.686492681503296 43.29743957519531 54.686492681503296 C 43.29743957519531 54.686492681503296 62.61094665527344 54.686492681503296 62.61094665527344 54.686492681503296 C 62.61094665527344 54.686492681503296 62.61094665527344 56.11155033111572 62.61094665527344 56.11155033111572 C 62.61094665527344 56.11155033111572 43.29743957519531 56.11155033111572 43.29743957519531 56.11155033111572 C 43.29743957519531 56.11155033111572 43.29743957519531 59.051299691200256 43.29743957519531 59.051299691200256 C 43.29743957519531 59.051299691200256 72.1105728149414 59.051299691200256 72.1105728149414 59.051299691200256 C 72.1105728149414 59.051299691200256 72.1105728149414 51.43364369869232 72.1105728149414 51.43364369869232 C 72.1105728149414 51.43364369869232 53.31273651123047 51.43364369869232 53.31273651123047 51.43364369869232 C 53.31273651123047 51.43364369869232 51.22727966308594 51.43364369869232 51.22727966308594 51.43364369869232 Z"/></g></svg>