<svg version="1.1" xmlns="http://www.w3.org/2000/svg" xmlns:xlink="http://www.w3.org/1999/xlink" width="61" height="100"><defs/><g><path fill="rgb(24,207,171)" stroke="none" paint-order="stroke fill markers" fill-rule="evenodd" d=" M 18.418365478515625 96.83083653450012 C 18.418365478515625 98.02044987678528 19.38287353515625 98.99609804153442 20.561729431152344 98.99609804153442 C 20.561729431152344 98.99609804153442 52.240806579589844 98.99609804153442 52.240806579589844 98.99609804153442 C 53.41966247558594 98.99609804153442 54.384056091308594 98.02044987678528 54.384056091308594 96.83083653450012 C 54.384056091308594 96.83083653450012 54.384056091308594 91.86626613140106 54.384056091308594 91.86626613140106 C 54.384056091308594 91.86626613140106 18.418365478515625 91.86626613140106 18.418365478515625 91.86626613140106 C 18.418365478515625 91.86626613140106 18.418365478515625 96.83083653450012 18.418365478515625 96.83083653450012 Z M 17.70013427734375 36.97593688964844 C 17.70013427734375 36.97593688964844 17.71100616455078 21.127643585205078 17.71100616455078 21.127643585205078 C 17.71100616455078 19.29737389087677 18.3968505859375 17.58523941040039 19.650779724121094 16.306405067443848 C 21.043869018554688 14.899935126304626 23.037200927734375 14.096533060073853 25.137649536132812 14.096533060073853 C 26.777359008789062 14.096533060073853 28.352867126464844 14.607075452804565 29.57452392578125 15.515807867050171 C 31.053558349609375 16.621569991111755 31.97503662109375 18.290333151817322 32.16809844970703 20.19577980041504 C 32.16809844970703 20.23873805999756 33.014503479003906 28.50489854812622 33.775421142578125 35.90363264083862 C 39.10173034667969 32.740004658699036 42.69208526611328 26.891485452651978 42.69208526611328 20.19577980041504 C 42.69208526611328 10.143133997917175 34.63269805908203 1.9959348440170288 24.687667846679688 1.9959348440170288 C 14.742523193359375 1.9959348440170288 6.683135986328125 10.143133997917175 6.683135986328125 20.19577980041504 C 6.672607421875 27.734954357147217 11.216598510742188 34.2129772901535 17.70013427734375 36.97593688964844 Z M 59.999900817871094 57.65620827674866 C 59.999900817871094 55.543405413627625 58.660255432128906 53.66935133934021 56.66680908203125 53.02043378353119 C 50.719085693359375 51.05839788913727 38.71595001220703 47.1487832069397 36.88340759277344 46.77950739860535 C 36.3155517578125 46.67252480983734 35.758338928222656 46.61882698535919 35.22218322753906 46.61882698535919 C 33.775421142578125 46.61882698535919 32.510963439941406 47.018256187438965 31.74993133544922 47.701870799064636 C 31.74993133544922 47.701870799064636 31.739402770996094 47.701870799064636 31.739402770996094 47.701870799064636 C 31.739402770996094 47.701870799064636 31.739402770996094 47.701870799064636 31.739402770996094 47.68947899341583 C 31.728759765625 47.60397553443909 28.9638671875 20.576208233833313 28.9638671875 20.532423853874207 C 28.7386474609375 18.36427092552185 26.959548950195312 17.33657717704773 25.12700653076172 17.33657717704773 C 23.04784393310547 17.33657717704773 20.90447998046875 18.657543659210205 20.91546630859375 21.115664839744568 C 20.91546630859375 21.115664839744568 20.893836975097656 64.91450190544128 20.893836975097656 64.91450190544128 C 20.893836975097656 65.43454468250275 20.518699645996094 65.86867094039917 20.00440216064453 65.94302177429199 C 19.9935302734375 65.94302177429199 19.9935302734375 65.94302177429199 19.982887268066406 65.94302177429199 C 19.940200805664062 65.9554135799408 19.886642456054688 65.9554135799408 19.84349822998047 65.9554135799408 C 19.832969665527344 65.9554135799408 19.82232666015625 65.9554135799408 19.81134033203125 65.9554135799408 C 18.354049682617188 65.9112161397934 15.063987731933594 65.86867094039917 11.859642028808594 61.17672026157379 C 11.430831909179688 60.55960834026337 11.045051574707031 59.99743342399597 10.691429138183594 59.475738406181335 C 9.576889038085938 57.86232531070709 8.08709716796875 57.17044949531555 6.683135986328125 57.17044949531555 C 4.218421936035156 57.17044949531555 1.9999847412109375 59.32455837726593 2.535797119140625 62.54312336444855 C 3.307586669921875 67.23424792289734 8.387161254882812 78.16340744495392 18.3968505859375 88.41266989707947 C 18.3968505859375 88.41266989707947 54.362770080566406 88.41266989707947 54.362770080566406 88.41266989707947 C 54.362770080566406 88.41266989707947 57.995582580566406 82.2047883272171 57.995582580566406 82.2047883272171 C 59.29231262207031 80.00565588474274 59.97850036621094 77.49301075935364 59.97850036621094 74.92501556873322 C 59.97850036621094 74.92501556873322 59.999900817871094 57.65620827674866 59.999900817871094 57.65620827674866 Z"/></g></svg>