<svg version="1.1" xmlns="http://www.w3.org/2000/svg" xmlns:xlink="http://www.w3.org/1999/xlink" width="47" height="33"><defs/><g><path fill="rgb(24,207,171)" stroke="none" paint-order="stroke fill markers" fill-rule="evenodd" d=" M 11.658462524414062 12.902642369270325 C 16.969093322753906 12.902642369270325 21.274131774902344 17.175750017166138 21.274131774902344 22.448463320732117 C 21.274131774902344 27.719524383544922 16.969093322753906 31.99304509162903 11.658462524414062 31.99304509162903 C 6.3479461669921875 31.99304509162903 2.04290771484375 27.719524383544922 2.04290771484375 22.448463320732117 C 2.04290771484375 22.448463320732117 1.9999923706054688 21.084125518798828 1.9999923706054688 21.084125518798828 C 1.9999923706054688 10.54117727279663 10.610069274902344 1.9937227964401245 21.231216430664062 1.9937227964401245 C 21.231216430664062 1.9937227964401245 21.231216430664062 7.447356462478638 21.231216430664062 7.447356462478638 C 17.56201171875 7.447356462478638 14.112419128417969 8.866218209266663 11.517929077148438 11.442474603652954 C 11.018508911132812 11.937733769416809 10.562690734863281 12.46603775024414 10.151618957519531 13.021190643310547 C 10.642570495605469 12.94518756866455 11.145767211914062 12.902642369270325 11.658462524414062 12.902642369270325 Z M 36.38433837890625 12.902642369270325 C 41.694854736328125 12.902642369270325 45.99989318847656 17.175750017166138 45.99989318847656 22.448463320732117 C 45.99989318847656 27.719524383544922 41.694854736328125 31.99304509162903 36.38433837890625 31.99304509162903 C 31.073822021484375 31.99304509162903 26.76866912841797 27.719524383544922 26.76866912841797 22.448463320732117 C 26.76866912841797 22.448463320732117 26.725753784179688 21.084125518798828 26.725753784179688 21.084125518798828 C 26.725753784179688 10.54117727279663 35.33594512939453 1.9937227964401245 45.95697784423828 1.9937227964401245 C 45.95697784423828 1.9937227964401245 45.95697784423828 7.447356462478638 45.95697784423828 7.447356462478638 C 42.28788757324219 7.447356462478638 38.838294982910156 8.866218209266663 36.243804931640625 11.442474603652954 C 35.74427032470703 11.937733769416809 35.28856658935547 12.46603775024414 34.87738037109375 13.021190643310547 C 35.368446350097656 12.94518756866455 35.87152862548828 12.902642369270325 36.38433837890625 12.902642369270325 Z"/></g></svg>