<svg version="1.1" xmlns="http://www.w3.org/2000/svg" xmlns:xlink="http://www.w3.org/1999/xlink" width="17" height="17"><defs/><g><path fill="rgb(31,218,181)" stroke="none" paint-order="stroke fill markers" fill-rule="evenodd" d=" M 14.913047790527344 3.72813081741333 C 14.913047790527344 3.72813081741333 13.094810485839844 1.8912521600723267 13.094810485839844 1.8912521600723267 C 12.290176391601562 1.080828070640564 10.9830322265625 1.0758713483810425 10.176795959472656 1.882577896118164 C 10.176795959472656 1.882577896118164 8.159202575683594 3.892528772354126 8.159202575683594 3.892528772354126 C 7.351593017578125 4.698822259902954 7.3481597900390625 6.01028835773468 8.150505065917969 6.820712447166443 C 8.150505065917969 6.820712447166443 9.303497314453125 5.688927531242371 9.303497314453125 5.688927531242371 C 9.186767578125 5.328325986862183 9.330390930175781 4.915265798568726 9.615921020507812 4.629428148269653 C 9.615921020507812 4.629428148269653 10.899490356445312 3.3518329858779907 10.899490356445312 3.3518329858779907 C 11.306098937988281 2.946207880973816 11.958412170410156 2.94909930229187 12.359527587890625 3.3543113470077515 C 12.359527587890625 3.3543113470077515 13.4512939453125 4.458008170127869 13.4512939453125 4.458008170127869 C 13.852752685546875 4.8628071546554565 13.851036071777344 5.5170944929122925 13.446945190429688 5.923132658004761 C 13.446945190429688 5.923132658004761 12.163375854492188 7.202380061149597 12.163375854492188 7.202380061149597 C 11.891807556152344 7.4729344844818115 11.446060180664062 7.621636152267456 11.1002197265625 7.5262192487716675 C 11.1002197265625 7.5262192487716675 9.970916748046875 8.658830285072327 9.970916748046875 8.658830285072327 C 10.774520874023438 9.47173273563385 12.080291748046875 9.474624156951904 12.888931274414062 8.668330669403076 C 12.888931274414062 8.668330669403076 14.903892517089844 6.659205913543701 14.903892517089844 6.659205913543701 C 15.714134216308594 5.85249936580658 15.716651916503906 4.539794087409973 14.913047790527344 3.72813081741333 Z M 7.526115417480469 11.091754794120789 C 7.6219024658203125 11.444095134735107 7.4685516357421875 11.89970052242279 7.19091796875 12.177690029144287 C 7.19091796875 12.177690029144287 5.9922637939453125 13.375151515007019 5.9922637939453125 13.375151515007019 C 5.5807342529296875 13.784494161605835 4.915946960449219 13.783254981040955 4.506706237792969 13.368955612182617 C 4.506706237792969 13.368955612182617 3.3929672241210938 12.247497200965881 3.3929672241210938 12.247497200965881 C 2.9846420288085938 11.834850072860718 2.987274169921875 11.163214206695557 3.3982315063476562 10.754697680473328 C 3.3982315063476562 10.754697680473328 4.598030090332031 9.55764925479889 4.598030090332031 9.55764925479889 C 4.890312194824219 9.266028761863708 5.3104248046875 9.120218515396118 5.677093505859375 9.243723511695862 C 5.677093505859375 9.243723511695862 6.833518981933594 8.07145869731903 6.833518981933594 8.07145869731903 C 6.014923095703125 7.246164441108704 4.682487487792969 7.242033839225769 3.8605728149414062 8.063197493553162 C 3.8605728149414062 8.063197493553162 1.915191650390625 10.004167318344116 1.915191650390625 10.004167318344116 C 1.0922470092773438 10.82657015323639 1.0883560180664062 12.162819862365723 1.906494140625 12.988527178764343 C 1.906494140625 12.988527178764343 3.758148193359375 14.861755132675171 3.758148193359375 14.861755132675171 C 4.5759429931640625 15.684571027755737 5.907234191894531 15.691179990768433 6.7310943603515625 14.87001633644104 C 6.7310943603515625 14.87001633644104 8.676475524902344 12.928633451461792 8.676475524902344 12.928633451461792 C 9.498504638671875 12.105404496192932 9.502395629882812 10.77163314819336 8.685516357421875 9.944273591041565 C 8.685516357421875 9.944273591041565 7.526115417480469 11.091754794120789 7.526115417480469 11.091754794120789 Z M 6.261772155761719 10.558081030845642 C 6.5342559814453125 10.84102725982666 6.9801177978515625 10.841853380203247 7.257865905761719 10.563037753105164 C 7.257865905761719 10.563037753105164 10.581687927246094 7.182966232299805 10.581687927246094 7.182966232299805 C 10.858749389648438 6.9008461236953735 10.860466003417969 6.445653796195984 10.585121154785156 6.163946747779846 C 10.311721801757812 5.883065819740295 9.866775512695312 5.8822396993637085 9.590744018554688 6.161055326461792 C 9.590744018554688 6.161055326461792 6.266120910644531 9.53988766670227 6.266120910644531 9.53988766670227 C 5.990089416503906 9.820355534553528 5.9879150390625 10.274308681488037 6.261772155761719 10.558081030845642 Z"/></g></svg>